<svg width="16" height="20" viewBox="0 0 16 20" fill="none" xmlns="http://www.w3.org/2000/svg">
<path d="M8.71 15.71L12.71 11.71C12.8032 11.6168 12.8772 11.5061 12.9277 11.3842C12.9781 11.2624 13.0041 11.1319 13.0041 11C13.0041 10.8681 12.9781 10.7376 12.9277 10.6158C12.8772 10.4939 12.8032 10.3832 12.71 10.29C12.6168 10.1968 12.5061 10.1228 12.3842 10.0723C12.2624 10.0219 12.1319 9.99591 12 9.99591C11.8681 9.99591 11.7376 10.0219 11.6157 10.0723C11.4939 10.1228 11.3832 10.1968 11.29 10.29L9 12.59L9 1C9 0.734783 8.89464 0.480429 8.70711 0.292893C8.51957 0.105356 8.26522 -3.38098e-07 8 -3.49691e-07C7.73478 -3.61284e-07 7.48043 0.105356 7.29289 0.292893C7.10536 0.480429 7 0.734783 7 1L7 12.59L4.71 10.29C4.61704 10.1963 4.50644 10.1219 4.38458 10.0711C4.26272 10.0203 4.13201 9.9942 4 9.9942C3.86799 9.9942 3.73728 10.0203 3.61542 10.0711C3.49356 10.1219 3.38296 10.1963 3.29 10.29C3.19627 10.383 3.12188 10.4936 3.07111 10.6154C3.02034 10.7373 2.9942 10.868 2.9942 11C2.9942 11.132 3.02034 11.2627 3.07111 11.3846C3.12188 11.5064 3.19627 11.617 3.29 11.71L7.29 15.71C7.3851 15.801 7.49725 15.8724 7.62 15.92C7.86346 16.02 8.13654 16.02 8.38 15.92C8.50275 15.8724 8.6149 15.801 8.71 15.71ZM16 19C16 18.7348 15.8946 18.4804 15.7071 18.2929C15.5196 18.1054 15.2652 18 15 18L0.999999 18C0.734782 18 0.480428 18.1054 0.292892 18.2929C0.105355 18.4804 -8.18923e-07 18.7348 -8.30516e-07 19C-8.42109e-07 19.2652 0.105355 19.5196 0.292892 19.7071C0.480428 19.8946 0.734782 20 0.999999 20L15 20C15.2652 20 15.5196 19.8946 15.7071 19.7071C15.8946 19.5196 16 19.2652 16 19Z" fill="black"/>
</svg>
