<svg width="172" height="29" viewBox="0 0 172 29" fill="none" xmlns="http://www.w3.org/2000/svg">
<path d="M1 1.5V27.5" stroke="#FA6900" stroke-width="2" stroke-linecap="round"/>
<path d="M43 1.5V27.5" stroke="#FA6900" stroke-width="2" stroke-linecap="round"/>
<path d="M17.8 6L17.8 24" stroke="#FA6900" stroke-width="2" stroke-linecap="round"/>
<path d="M34.6001 6L34.6001 24" stroke="#FA6900" stroke-width="2" stroke-linecap="round"/>
<path d="M9.3999 10L9.3999 20" stroke="#FA6900" stroke-width="2" stroke-linecap="round"/>
<path d="M26.2 10L26.2 20" stroke="#FA6900" stroke-width="2" stroke-linecap="round"/>
<path d="M85 1.5V27.5" stroke="#FA6900" stroke-width="2" stroke-linecap="round"/>
<path d="M59.8 6L59.8 24" stroke="#FA6900" stroke-width="2" stroke-linecap="round"/>
<path d="M76.6001 6L76.6001 24" stroke="#FA6900" stroke-width="2" stroke-linecap="round"/>
<path d="M51.3999 10L51.3999 20" stroke="#FA6900" stroke-width="2" stroke-linecap="round"/>
<path d="M68.2 10L68.2 20" stroke="#FA6900" stroke-width="2" stroke-linecap="round"/>
<path d="M127 1.5V27.5" stroke="#FA6900" stroke-width="2" stroke-linecap="round"/>
<path d="M101.8 6L101.8 24" stroke="#FA6900" stroke-width="2" stroke-linecap="round"/>
<path d="M118.6 6L118.6 24" stroke="#FA6900" stroke-width="2" stroke-linecap="round"/>
<path d="M93.3999 10L93.3999 20" stroke="#FA6900" stroke-width="2" stroke-linecap="round"/>
<path d="M110.2 10L110.2 20" stroke="#FA6900" stroke-width="2" stroke-linecap="round"/>
<path d="M135.4 27.5L135.4 1.5" stroke="#FA6900" stroke-width="2" stroke-linecap="round"/>
<path d="M160.6 23L160.6 5" stroke="#FA6900" stroke-width="2" stroke-linecap="round"/>
<path d="M143.8 23L143.8 5" stroke="#FA6900" stroke-width="2" stroke-linecap="round"/>
<path d="M169 19L169 9" stroke="#FA6900" stroke-width="2" stroke-linecap="round"/>
<path d="M152.2 19L152.2 9" stroke="#FA6900" stroke-width="2" stroke-linecap="round"/>
<g opacity="0.1">
<path d="M3 1.5V27.5" stroke="#FA6900" stroke-width="2" stroke-linecap="round"/>
<path d="M45 1.5V27.5" stroke="#FA6900" stroke-width="2" stroke-linecap="round"/>
<path d="M19.8 6L19.8 24" stroke="#FA6900" stroke-width="2" stroke-linecap="round"/>
<path d="M36.6001 6L36.6001 24" stroke="#FA6900" stroke-width="2" stroke-linecap="round"/>
<path d="M11.3999 10L11.3999 20" stroke="#FA6900" stroke-width="2" stroke-linecap="round"/>
<path d="M28.2 10L28.2 20" stroke="#FA6900" stroke-width="2" stroke-linecap="round"/>
<path d="M87 1.5V27.5" stroke="#FA6900" stroke-width="2" stroke-linecap="round"/>
<path d="M61.8 6L61.8 24" stroke="#FA6900" stroke-width="2" stroke-linecap="round"/>
<path d="M78.6001 6L78.6001 24" stroke="#FA6900" stroke-width="2" stroke-linecap="round"/>
<path d="M53.3999 10L53.3999 20" stroke="#FA6900" stroke-width="2" stroke-linecap="round"/>
<path d="M70.2 10L70.2 20" stroke="#FA6900" stroke-width="2" stroke-linecap="round"/>
<path d="M129 1.5V27.5" stroke="#FA6900" stroke-width="2" stroke-linecap="round"/>
<path d="M103.8 6L103.8 24" stroke="#FA6900" stroke-width="2" stroke-linecap="round"/>
<path d="M120.6 6L120.6 24" stroke="#FA6900" stroke-width="2" stroke-linecap="round"/>
<path d="M95.3999 10L95.3999 20" stroke="#FA6900" stroke-width="2" stroke-linecap="round"/>
<path d="M112.2 10L112.2 20" stroke="#FA6900" stroke-width="2" stroke-linecap="round"/>
<path d="M137.4 27.5L137.4 1.5" stroke="#FA6900" stroke-width="2" stroke-linecap="round"/>
<path d="M162.6 23L162.6 5" stroke="#FA6900" stroke-width="2" stroke-linecap="round"/>
<path d="M145.8 23L145.8 5" stroke="#FA6900" stroke-width="2" stroke-linecap="round"/>
<path d="M171 19L171 9" stroke="#FA6900" stroke-width="2" stroke-linecap="round"/>
<path d="M154.2 19L154.2 9" stroke="#FA6900" stroke-width="2" stroke-linecap="round"/>
</g>
</svg>
