<svg width="143" height="55" viewBox="0 0 143 55" fill="none" xmlns="http://www.w3.org/2000/svg">
<path fill-rule="evenodd" clip-rule="evenodd" d="M10 10C4.47715 10 0 14.4772 0 20V38C0 43.5228 4.47715 48 10 48H25.6279C32.6977 48 36.8217 52.4186 38 54.6279V39.6047L37.8762 39.5778C37.9577 39.0638 38 38.5368 38 38V20C38 14.4772 33.5228 10 28 10H10Z" fill="#7B61FF"/>
<path opacity="0.5" fill-rule="evenodd" clip-rule="evenodd" d="M61.8416 0C65.1553 0 67.8416 2.6863 67.8416 6.00001V17.8416C67.8416 21.1553 65.1553 23.8416 61.8415 23.8416H50C49.9419 23.8416 49.884 23.8408 49.8263 23.8391C46.5664 24.4825 44.6243 26.6414 44 27.8119V18.3861L44.0239 18.3809C44.0081 18.2033 44 18.0234 44 17.8416V6C44 2.68629 46.6863 0 50 0H61.8416Z" fill="#7B61FF"/>
<path d="M62.48 30.72C63.8667 30.72 64.9667 31.14 65.78 31.98C66.6067 32.82 67.02 33.9867 67.02 35.48V42H63.62V35.94C63.62 35.22 63.4267 34.6667 63.04 34.28C62.6667 33.88 62.1467 33.68 61.48 33.68C60.8133 33.68 60.2867 33.88 59.9 34.28C59.5267 34.6667 59.34 35.22 59.34 35.94V42H55.94V35.94C55.94 35.22 55.7467 34.6667 55.36 34.28C54.9867 33.88 54.4667 33.68 53.8 33.68C53.1333 33.68 52.6067 33.88 52.22 34.28C51.8467 34.6667 51.66 35.22 51.66 35.94V42H48.24V30.84H51.66V32.24C52.0067 31.7733 52.46 31.4067 53.02 31.14C53.58 30.86 54.2133 30.72 54.92 30.72C55.76 30.72 56.5067 30.9 57.16 31.26C57.8267 31.62 58.3467 32.1333 58.72 32.8C59.1067 32.1867 59.6333 31.6867 60.3 31.3C60.9667 30.9133 61.6933 30.72 62.48 30.72ZM68.7319 36.4C68.7319 35.2533 68.9452 34.2467 69.3719 33.38C69.8119 32.5133 70.4052 31.8467 71.1519 31.38C71.8985 30.9133 72.7319 30.68 73.6519 30.68C74.4385 30.68 75.1252 30.84 75.7119 31.16C76.3119 31.48 76.7719 31.9 77.0919 32.42V30.84H80.5119V42H77.0919V40.42C76.7585 40.94 76.2919 41.36 75.6919 41.68C75.1052 42 74.4185 42.16 73.6319 42.16C72.7252 42.16 71.8985 41.9267 71.1519 41.46C70.4052 40.98 69.8119 40.3067 69.3719 39.44C68.9452 38.56 68.7319 37.5467 68.7319 36.4ZM77.0919 36.42C77.0919 35.5667 76.8519 34.8933 76.3719 34.4C75.9052 33.9067 75.3319 33.66 74.6519 33.66C73.9719 33.66 73.3919 33.9067 72.9119 34.4C72.4452 34.88 72.2119 35.5467 72.2119 36.4C72.2119 37.2533 72.4452 37.9333 72.9119 38.44C73.3919 38.9333 73.9719 39.18 74.6519 39.18C75.3319 39.18 75.9052 38.9333 76.3719 38.44C76.8519 37.9467 77.0919 37.2733 77.0919 36.42ZM86.4061 32.42C86.7394 31.9 87.1994 31.48 87.7861 31.16C88.3728 30.84 89.0594 30.68 89.8461 30.68C90.7661 30.68 91.5994 30.9133 92.3461 31.38C93.0928 31.8467 93.6794 32.5133 94.1061 33.38C94.5461 34.2467 94.7661 35.2533 94.7661 36.4C94.7661 37.5467 94.5461 38.56 94.1061 39.44C93.6794 40.3067 93.0928 40.98 92.3461 41.46C91.5994 41.9267 90.7661 42.16 89.8461 42.16C89.0728 42.16 88.3861 42 87.7861 41.68C87.1994 41.36 86.7394 40.9467 86.4061 40.44V47.32H82.9861V30.84H86.4061V32.42ZM91.2861 36.4C91.2861 35.5467 91.0461 34.88 90.5661 34.4C90.0994 33.9067 89.5194 33.66 88.8261 33.66C88.1461 33.66 87.5661 33.9067 87.0861 34.4C86.6194 34.8933 86.3861 35.5667 86.3861 36.42C86.3861 37.2733 86.6194 37.9467 87.0861 38.44C87.5661 38.9333 88.1461 39.18 88.8261 39.18C89.5061 39.18 90.0861 38.9333 90.5661 38.44C91.0461 37.9333 91.2861 37.2533 91.2861 36.4ZM95.8803 36.42C95.8803 35.26 96.1136 34.2467 96.5803 33.38C97.0603 32.5133 97.7203 31.8467 98.5603 31.38C99.4136 30.9133 100.387 30.68 101.48 30.68C102.88 30.68 104.047 31.0467 104.98 31.78C105.927 32.5133 106.547 33.5467 106.84 34.88H103.2C102.894 34.0267 102.3 33.6 101.42 33.6C100.794 33.6 100.294 33.8467 99.9203 34.34C99.547 34.82 99.3603 35.5133 99.3603 36.42C99.3603 37.3267 99.547 38.0267 99.9203 38.52C100.294 39 100.794 39.24 101.42 39.24C102.3 39.24 102.894 38.8133 103.2 37.96H106.84C106.547 39.2667 105.927 40.2933 104.98 41.04C104.034 41.7867 102.867 42.16 101.48 42.16C100.387 42.16 99.4136 41.9267 98.5603 41.46C97.7203 40.9933 97.0603 40.3267 96.5803 39.46C96.1136 38.5933 95.8803 37.58 95.8803 36.42ZM115.53 30.72C116.81 30.72 117.836 31.1467 118.61 32C119.383 32.84 119.77 34 119.77 35.48V42H116.37V35.94C116.37 35.1933 116.176 34.6133 115.79 34.2C115.403 33.7867 114.883 33.58 114.23 33.58C113.576 33.58 113.056 33.7867 112.67 34.2C112.283 34.6133 112.09 35.1933 112.09 35.94V42H108.67V27.2H112.09V32.34C112.436 31.8467 112.91 31.4533 113.51 31.16C114.11 30.8667 114.783 30.72 115.53 30.72ZM121.466 36.4C121.466 35.2533 121.68 34.2467 122.106 33.38C122.546 32.5133 123.14 31.8467 123.886 31.38C124.633 30.9133 125.466 30.68 126.386 30.68C127.173 30.68 127.86 30.84 128.446 31.16C129.046 31.48 129.506 31.9 129.826 32.42V30.84H133.246V42H129.826V40.42C129.493 40.94 129.026 41.36 128.426 41.68C127.84 42 127.153 42.16 126.366 42.16C125.46 42.16 124.633 41.9267 123.886 41.46C123.14 40.98 122.546 40.3067 122.106 39.44C121.68 38.56 121.466 37.5467 121.466 36.4ZM129.826 36.42C129.826 35.5667 129.586 34.8933 129.106 34.4C128.64 33.9067 128.066 33.66 127.386 33.66C126.706 33.66 126.126 33.9067 125.646 34.4C125.18 34.88 124.946 35.5467 124.946 36.4C124.946 37.2533 125.18 37.9333 125.646 38.44C126.126 38.9333 126.706 39.18 127.386 39.18C128.066 39.18 128.64 38.9333 129.106 38.44C129.586 37.9467 129.826 37.2733 129.826 36.42ZM141.94 39.1V42H140.2C138.96 42 137.994 41.7 137.3 41.1C136.607 40.4867 136.26 39.4933 136.26 38.12V33.68H134.9V30.84H136.26V28.12H139.68V30.84H141.92V33.68H139.68V38.16C139.68 38.4933 139.76 38.7333 139.92 38.88C140.08 39.0267 140.347 39.1 140.72 39.1H141.94Z" fill="black"/>
</svg>
